<?xml version="1.0" encoding="UTF-8" standalone="no"?>
<!-- Created with Inkscape (http://www.inkscape.org/) -->

<svg
   xmlns:dc="http://purl.org/dc/elements/1.1/"
   xmlns:cc="http://creativecommons.org/ns#"
   xmlns:rdf="http://www.w3.org/1999/02/22-rdf-syntax-ns#"
   xmlns:svg="http://www.w3.org/2000/svg"
   xmlns="http://www.w3.org/2000/svg"
   xmlns:sodipodi="http://sodipodi.sourceforge.net/DTD/sodipodi-0.dtd"
   xmlns:inkscape="http://www.inkscape.org/namespaces/inkscape"
   width="15.345833mm"
   height="15.345833mm"
   viewBox="0 0 15.345833 15.345833"
   version="1.1"
   id="svg839"
   inkscape:version="0.92.3 (2405546, 2018-03-11)"
   sodipodi:docname="icon_phone_white.svg">
  <defs
     id="defs833" />
  <sodipodi:namedview
     id="base"
     pagecolor="#ffffff"
     bordercolor="#666666"
     borderopacity="1.0"
     inkscape:pageopacity="0.0"
     inkscape:pageshadow="2"
     inkscape:zoom="7.9195959"
     inkscape:cx="160.83355"
     inkscape:cy="-34.612272"
     inkscape:document-units="mm"
     inkscape:current-layer="layer1"
     showgrid="false"
     inkscape:window-width="3840"
     inkscape:window-height="2066"
     inkscape:window-x="-11"
     inkscape:window-y="-11"
     inkscape:window-maximized="1" />
  <metadata
     id="metadata836">
    <rdf:RDF>
      <cc:Work
         rdf:about="">
        <dc:format>image/svg+xml</dc:format>
        <dc:type
           rdf:resource="http://purl.org/dc/dcmitype/StillImage" />
        <dc:title></dc:title>
      </cc:Work>
    </rdf:RDF>
  </metadata>
  <g
     inkscape:label="Layer 1"
     inkscape:groupmode="layer"
     id="layer1"
     transform="translate(-39.847792,-163.96019)">
    <g
       onclick="window.open('https://www.instagram.com/czyzyk.kawiarnia/', '_blank')"
       id="Page-1"
       class="socialIcon__g"
       transform="matrix(0.26458333,0,0,0.26458333,93.360119,190.03274)"
       style="fill:none;fill-rule:evenodd;stroke:#ffffff;stroke-width:2;stroke-miterlimit:4;stroke-dasharray:none;stroke-opacity:1">
      <g
         transform="translate(1,1)"
         class="socialIcon__path"
         id="Instagram"
         style="stroke:#ffffff;stroke-width:2;stroke-miterlimit:4;stroke-dasharray:none;stroke-opacity:1">
        <path
           id="Stroke-107"
           d="M 54,58 H 4 C 1.791,58 0,56.209 0,54 V 4 C 0,1.791 1.791,0 4,0 h 50 c 2.209,0 4,1.791 4,4 v 50 c 0,2.209 -1.791,4 -4,4 z"
           class="socialIcon__backgroundPath socialIcon__backgroundPath--instagram"
           inkscape:connector-curvature="0"
           style="stroke:#ffffff;stroke-width:2;stroke-linejoin:round;stroke-miterlimit:4;stroke-dasharray:none;stroke-opacity:1" />
        <path
           id="Stroke-9"
           d="m 36.7375,29.0458 c 0,-4.237 -3.442,-7.675 -7.692,-7.675 -4.245,0 -7.691,3.438 -7.691,7.675 0,4.237 3.446,7.675 7.691,7.675 4.25,0 7.692,-3.438 7.692,-7.675 z m 7.263,-10.046 v -3.75 c 0,-0.691 -0.563,-1.25 -1.25,-1.25 h -3.75 c -0.692,0 -1.25,0.559 -1.25,1.25 v 3.75 c 0,0.688 0.558,1.25 1.25,1.25 h 3.75 c 0.687,0 1.25,-0.562 1.25,-1.25 z m 1.25,25 v -18.75 h -5 c 0.808,0.963 0.962,2.683 0.962,3.796 0,6.692 -5.458,12.137 -12.167,12.137 -6.708,0 -12.166,-5.445 -12.166,-12.137 0,-1.113 0.221,-2.862 0.871,-3.796 h -5 v 18.75 c 0,0.688 0.558,1.25 1.25,1.25 h 30 c 0.687,0 1.25,-0.562 1.25,-1.25 z m 3.75,-30.258 v 30.512 c 0,2.621 -2.13,4.746 -4.755,4.746 h -30.491 c -2.625,0 -4.754,-2.125 -4.754,-4.746 v -30.512 c 0,-2.621 2.129,-4.742 4.754,-4.742 h 30.491 c 2.625,0 4.755,2.121 4.755,4.742 z"
           inkscape:connector-curvature="0"
           style="stroke:#ffffff;stroke-width:2;stroke-miterlimit:4;stroke-dasharray:none;stroke-opacity:1" />
      </g>
    </g>
    <g
       class="socialIcon__g"
       onclick="window.open('tel: +48883418249', '_blank')"
       id="Page-1-4"
       transform="matrix(0.26458333,0,0,0.26458333,39.583209,163.69561)"
       style="fill:none;fill-rule:evenodd;stroke:#ffffff;stroke-width:2.00000003;stroke-opacity:1;stroke-miterlimit:4;stroke-dasharray:none">
      <g
         transform="translate(1,1)"
         class="socialIcon__path"
         id="Viber"
         style="stroke:#ffffff;stroke-opacity:1;stroke-width:2.00000003;stroke-miterlimit:4;stroke-dasharray:none">
        <path
           id="Stroke-111"
           d="M 54,58 H 4 C 1.791,58 0,56.209 0,54 V 4 C 0,1.791 1.791,0 4,0 h 50 c 2.209,0 4,1.791 4,4 v 50 c 0,2.209 -1.791,4 -4,4 z"
           class="socialIcon__backgroundPath socialIcon__backgroundPath--phone"
           inkscape:connector-curvature="0"
           style="stroke-linejoin:round;stroke:#ffffff;stroke-opacity:1;stroke-width:2.00000003;stroke-miterlimit:4;stroke-dasharray:none" />
        <path
           id="Stroke-55"
           d="m 52.4926,42.7537 c 0.817,1.01 0.964,2.306 0.409,3.74 -0.586,1.511 -2.869,4.349 -4.465,5.56 -1.442,1.087 -2.46,1.511 -3.809,1.573 -1.111,0.054 -1.574,-0.039 -2.992,-0.625 -11.128,-4.58 -20.011,-11.42 -27.067,-20.812 -3.686,-4.913 -6.485,-10.002 -8.405,-15.276 -1.118,-3.077 -1.172,-4.419 -0.255,-5.992 0.394,-0.663 2.082,-2.313 3.316,-3.231 2.044,-1.519 2.984,-2.082 3.74,-2.236 0.517,-0.108 1.411,-0.024 1.982,0.177 0.277,0.1 0.702,0.324 0.948,0.478 1.504,0.995 5.699,6.354 7.072,9.03 0.786,1.527 1.041,2.66 0.802,3.501 -0.255,0.902 -0.679,1.373 -2.553,2.884 -0.756,0.609 -1.457,1.234 -1.573,1.403 -0.285,0.409 -0.517,1.219 -0.517,1.789 0.008,1.319 0.864,3.717 1.99,5.56 0.871,1.434 2.437,3.27 3.979,4.681 1.82,1.658 3.416,2.791 5.228,3.686 2.321,1.157 3.74,1.45 4.773,0.964 0.263,-0.116 0.54,-0.278 0.633,-0.347 0.077,-0.07 0.686,-0.818 1.349,-1.635 1.288,-1.619 1.581,-1.874 2.46,-2.182 1.118,-0.378 2.26,-0.27 3.408,0.316 0.872,0.447 2.776,1.627 4.003,2.483 1.619,1.133 5.074,3.948 5.544,4.511 z"
           inkscape:connector-curvature="0"
           style="stroke:#ffffff;stroke-opacity:1;stroke-width:2.00000003;stroke-miterlimit:4;stroke-dasharray:none" />
        <path
           id="Stroke-56"
           d="m 52.9398,27.6242 c 0.054,1.38 0.015,1.689 -0.301,2.082 -0.601,0.771 -1.928,0.648 -2.375,-0.216 -0.146,-0.285 -0.185,-0.532 -0.231,-1.642 -0.077,-1.697 -0.201,-2.8 -0.44,-4.11 -0.933,-5.152 -3.408,-9.269 -7.348,-12.223 -3.293,-2.467 -6.694,-3.67 -11.151,-3.933 -1.504,-0.084 -1.766,-0.146 -2.105,-0.401 -0.632,-0.501 -0.663,-1.673 -0.054,-2.22 0.37,-0.34 0.632,-0.386 1.928,-0.347 0.671,0.023 1.658,0.1 2.197,0.169 2.73,0.34 4.936,0.995 7.349,2.175 2.375,1.164 3.902,2.259 5.915,4.264 1.881,1.889 2.93,3.324 4.04,5.545 1.543,3.107 2.429,6.793 2.576,10.857 z"
           inkscape:connector-curvature="0"
           style="stroke:#ffffff;stroke-opacity:1;stroke-width:2.00000003;stroke-miterlimit:4;stroke-dasharray:none" />
        <path
           id="Stroke-57"
           d="m 47.1101,24.0924 c 0.1,0.941 0.1,2.66 -0.008,2.946 -0.108,0.262 -0.439,0.632 -0.725,0.779 -0.308,0.161 -0.963,0.146 -1.334,-0.047 -0.609,-0.308 -0.786,-0.802 -0.786,-2.128 0,-2.051 -0.532,-4.21 -1.458,-5.891 -1.041,-1.913 -2.567,-3.494 -4.418,-4.596 -1.596,-0.949 -3.948,-1.651 -6.092,-1.828 -0.779,-0.062 -1.211,-0.224 -1.504,-0.563 -0.447,-0.516 -0.493,-1.211 -0.115,-1.789 0.408,-0.64 1.048,-0.74 2.938,-0.455 4.811,0.702 8.536,2.93 10.98,6.555 1.373,2.043 2.229,4.441 2.522,7.017 z"
           inkscape:connector-curvature="0"
           style="stroke:#ffffff;stroke-opacity:1;stroke-width:2.00000003;stroke-miterlimit:4;stroke-dasharray:none" />
        <path
           id="Stroke-58"
           d="m 41.0568,25.7041 c -0.463,0.432 -1.326,0.447 -1.851,0.039 -0.378,-0.286 -0.501,-0.587 -0.586,-1.396 -0.108,-1.088 -0.293,-1.843 -0.617,-2.553 -0.701,-1.496 -1.927,-2.267 -4.002,-2.521 -0.979,-0.124 -1.272,-0.232 -1.588,-0.602 -0.579,-0.694 -0.355,-1.804 0.447,-2.221 0.301,-0.146 0.424,-0.161 1.087,-0.123 0.417,0.023 1.026,0.093 1.35,0.17 1.565,0.331 2.76,0.925 3.778,1.881 1.319,1.242 2.044,2.745 2.36,4.905 0.208,1.411 0.123,1.966 -0.378,2.421 z"
           inkscape:connector-curvature="0"
           style="stroke:#ffffff;stroke-opacity:1;stroke-width:2.00000003;stroke-miterlimit:4;stroke-dasharray:none" />
      </g>
    </g>
  </g>
</svg>
