<?xml version="1.0" encoding="UTF-8" standalone="no"?>
<?xml-stylesheet type="text/css" href="../../css/style.css" ?><svg
   xmlns:dc="http://purl.org/dc/elements/1.1/"
   xmlns:cc="http://creativecommons.org/ns#"
   xmlns:rdf="http://www.w3.org/1999/02/22-rdf-syntax-ns#"
   xmlns:svg="http://www.w3.org/2000/svg"
   xmlns="http://www.w3.org/2000/svg"
   xmlns:sodipodi="http://sodipodi.sourceforge.net/DTD/sodipodi-0.dtd"
   xmlns:inkscape="http://www.inkscape.org/namespaces/inkscape"
   version="1.1"
   viewBox="0 0 60 60"
   id="svg9"
   sodipodi:docname="icon_facebook_white.svg"
   inkscape:version="0.92.3 (2405546, 2018-03-11)">
  <metadata
     id="metadata15">
    <rdf:RDF>
      <cc:Work
         rdf:about="">
        <dc:format>image/svg+xml</dc:format>
        <dc:type
           rdf:resource="http://purl.org/dc/dcmitype/StillImage" />
        <dc:title></dc:title>
      </cc:Work>
    </rdf:RDF>
  </metadata>
  <defs
     id="defs13" />
  <sodipodi:namedview
     pagecolor="#ffffff"
     bordercolor="#666666"
     borderopacity="1"
     objecttolerance="10"
     gridtolerance="10"
     guidetolerance="10"
     inkscape:pageopacity="0"
     inkscape:pageshadow="2"
     inkscape:window-width="3840"
     inkscape:window-height="2066"
     id="namedview11"
     showgrid="false"
     inkscape:zoom="3.9333333"
     inkscape:cx="0.12711864"
     inkscape:cy="30"
     inkscape:window-x="-11"
     inkscape:window-y="-11"
     inkscape:window-maximized="1"
     inkscape:current-layer="svg9" />
  <g
     fill="none"
     class="socialIcon__g"
     fill-rule="evenodd"
     stroke="none"
     stroke-width="1"
     onclick="window.open('https://www.facebook.com/czyzykpiekarniakawiarnia/', '_blank')"
     id="g5"
     style="stroke:#ffffff;stroke-opacity:1;stroke-width:2;stroke-miterlimit:4;stroke-dasharray:none">
    <g
       id="Facebook"
       class="socialIcon__path"
       transform="translate(1.000000, 1.000000)"
       style="stroke:#ffffff;stroke-opacity:1;stroke-width:2;stroke-miterlimit:4;stroke-dasharray:none">
      <path
         class="socialIcon__backgroundPath socialIcon__backgroundPath--facebook"
         d="M54,58 L4,58 C1.791,58 0,56.209 0,54 L0,4 C0,1.791 1.791,0 4,0 L54,0 C56.209,0 58,1.791 58,4 L58,54 C58,56.209 56.209,58 54,58 L54,58 Z"
         id="Stroke-99"
         stroke-linejoin="round"
         style="stroke:#ffffff;stroke-opacity:1;stroke-width:2;stroke-miterlimit:4;stroke-dasharray:none" />
      <path
         d="M39.0432,58 L39.0432,35.696 L46.2462,35.696 L47.3202,27.003 L39.0432,27.003 L39.0432,21.454 C39.0432,18.94 39.7132,17.225 43.1872,17.225 L47.6142,17.219 L47.6142,9.45 C46.8472,9.342 44.2202,9.102 41.1612,9.102 C34.7782,9.102 30.4082,13.157 30.4082,20.596 L30.4082,27.003 L23.1822,27.003 L23.1822,35.696 L30.4082,35.696 L30.4082,58 L39.0432,58 L39.0432,58 Z"
         id="Stroke-1"
         style="stroke:#ffffff;stroke-opacity:1;stroke-width:2;stroke-miterlimit:4;stroke-dasharray:none" />
    </g>
  </g>
  <script
     type="text/javascript"
     href="../../js/draw_icon.js"
     id="script7" />
</svg>
