<?xml version="1.0" encoding="UTF-8" standalone="no"?>
<svg
   xmlns:dc="http://purl.org/dc/elements/1.1/"
   xmlns:cc="http://creativecommons.org/ns#"
   xmlns:rdf="http://www.w3.org/1999/02/22-rdf-syntax-ns#"
   xmlns:svg="http://www.w3.org/2000/svg"
   xmlns="http://www.w3.org/2000/svg"
   xmlns:sodipodi="http://sodipodi.sourceforge.net/DTD/sodipodi-0.dtd"
   xmlns:inkscape="http://www.inkscape.org/namespaces/inkscape"
   enable-background="new 0 0 30 30"
   height="30.6"
   id="Capa_1"
   version="1.1"
   viewBox="0 0 30.741394 30.6"
   width="30.741394"
   xml:space="preserve"
   sodipodi:docname="icon_call.svg"
   inkscape:version="0.92.3 (2405546, 2018-03-11)"><metadata
     id="metadata9"><rdf:RDF><cc:Work
         rdf:about=""><dc:format>image/svg+xml</dc:format><dc:type
           rdf:resource="http://purl.org/dc/dcmitype/StillImage" /></cc:Work></rdf:RDF></metadata><defs
     id="defs7" /><sodipodi:namedview
     pagecolor="#ffffff"
     bordercolor="#666666"
     borderopacity="1"
     objecttolerance="10"
     gridtolerance="10"
     guidetolerance="10"
     inkscape:pageopacity="0"
     inkscape:pageshadow="2"
     inkscape:window-width="3840"
     inkscape:window-height="2066"
     id="namedview5"
     showgrid="false"
     inkscape:zoom="31.466667"
     inkscape:cx="5.8201501"
     inkscape:cy="10.142927"
     inkscape:window-x="-11"
     inkscape:window-y="-11"
     inkscape:window-maximized="1"
     inkscape:current-layer="Capa_1" /><path
     d="m 24.041394,15.2 c 0,0.02922 0.0016,0.05845 0.0048,0.08752 0.0401,0.368793 0.33173,0.71248 0.7952,0.71248 0.5,0 0.8,-0.3 0.8,-0.8 0,-5.5 -4.5,-10 -10,-10 -0.4,0 -0.8,0.3 -0.8,0.8 0,0.5 0.3,0.8 0.8,0.8 3.426009,-0.074478 6.408255,2.0143888 7.707332,5.027197 0.445155,1.032399 0.692668,2.17329 0.692668,3.372803 z m -8.5,-14.7 c -0.4,0 -0.8,0.3 -0.8,0.8 0,0.5 0.3,0.8 0.8,0.8 7.2,0 13.1,5.9 13.1,13.1 0,0.4 0.3,0.8 0.8,0.8 0.5,0 0.8,-0.3 0.8,-0.8 -0.1,-8.1 -6.6,-14.7 -14.7,-14.7 z m 4.2,17.5 c -0.1,-0.1 -0.3,-0.2 -0.5,-0.2 v 0 c -0.2,0 -0.4,0.1 -0.5,0.2 l -1.6,1.6 c -0.6,0.6 -1.6,0.6 -2.2,0 l -3.7,-3.4 c -0.6,-0.6 -0.6,-1.6 0,-2.2 l 1.8,-1.8 c 0.3,-0.3 0.3,-0.8 0,-1.1 L 5.6413936,3.8 c -0.1,-0.1 -0.3,-0.2 -0.5,-0.2 -0.2,0 -0.4,0.1 -0.5,0.2 -0.1,0.1 -2.4,2.4 -2.9,3 -1.40000004,1.4 -1.60000004,4.3 -0.6,6.8 2.2,5.5 9.5000004,12.2 15.6000004,15.9 0.5,0.3 1.7,0.6 2.9,0.6 v 0 c 1.1,0 2.7,-0.2 4.1,-1.4 1.3,-1.1 2.8,-2.7 2.9,-2.8 0.3,-0.3 0.3,-0.8 0,-1 z"
     id="path2"
     style="fill:none;stroke:#000000;stroke-width:0.7;stroke-miterlimit:4;stroke-dasharray:none;stroke-opacity:1"
     inkscape:connector-curvature="0"
     sodipodi:nodetypes="sssssscssssssscssccssccssccsscsccccscs" /></svg>