<?xml version="1.0" encoding="UTF-8" standalone="no"?>
<!-- Generator: Adobe Illustrator 18.0.0, SVG Export Plug-In . SVG Version: 6.00 Build 0)  -->

<svg
   xmlns:dc="http://purl.org/dc/elements/1.1/"
   xmlns:cc="http://creativecommons.org/ns#"
   xmlns:rdf="http://www.w3.org/1999/02/22-rdf-syntax-ns#"
   xmlns:svg="http://www.w3.org/2000/svg"
   xmlns="http://www.w3.org/2000/svg"
   xmlns:sodipodi="http://sodipodi.sourceforge.net/DTD/sodipodi-0.dtd"
   xmlns:inkscape="http://www.inkscape.org/namespaces/inkscape"
   version="1.1"
   id="Capa_1"
   x="0px"
   y="0px"
   viewBox="0 0 116.64096 44.553715"
   xml:space="preserve"
   sodipodi:docname="readMore.svg"
   width="116.64096"
   height="44.553715"
   inkscape:version="0.92.3 (2405546, 2018-03-11)"><metadata
   id="metadata41"><rdf:RDF><cc:Work
       rdf:about=""><dc:format>image/svg+xml</dc:format><dc:type
         rdf:resource="http://purl.org/dc/dcmitype/StillImage" /></cc:Work></rdf:RDF></metadata><defs
   id="defs39" /><sodipodi:namedview
   pagecolor="#ffffff"
   bordercolor="#666666"
   borderopacity="1"
   objecttolerance="10"
   gridtolerance="10"
   guidetolerance="10"
   inkscape:pageopacity="0"
   inkscape:pageshadow="2"
   inkscape:window-width="3840"
   inkscape:window-height="2066"
   id="namedview37"
   showgrid="false"
   inkscape:zoom="2.023285"
   inkscape:cx="-13.344843"
   inkscape:cy="22.277268"
   inkscape:window-x="-11"
   inkscape:window-y="-11"
   inkscape:window-maximized="1"
   inkscape:current-layer="Capa_1" />
<g
   id="g4"
   transform="translate(-2.0724627e-4,-36.044552)">
	<path
   d="m 106.842,48.518 c -7.05,-5.323 -14.906,-9.521 -23.241,-12.429 -0.534,-0.187 -0.946,0.247 -1.034,0.724 -0.223,-0.054 -0.465,0.005 -0.667,0.249 -1.128,1.361 -2.573,2.397 -3.666,3.793 -1.11,1.422 -1.021,3.442 -1.042,5.167 C 67.188,44.165 56.86,43.88 46.76,43.059 33.602,41.99 20.435,41.001 7.239,40.522 7.006,40.514 6.831,40.596 6.7,40.716 6.413,40.657 6.102,40.752 5.915,41.093 c -0.154,0.28 -5.215,4.59 -5.704,8.463 -0.713,5.667 0.526,27.388 1.582,27.982 0.37,0.208 29.495,-1.839 43.576,-3.637 1.341,-0.171 3.154,-0.331 5.233,-0.479 0.719,0.004 1.436,0.007 2.16,0.041 0.257,0.013 0.45,-0.08 0.584,-0.22 8.775,-0.534 20.26,-0.888 22.537,-1.027 0.088,1.693 -0.075,3.664 0.682,5.218 0.756,1.544 2.186,2.304 3.605,3.1 0.333,0.185 1.213,-0.085 1.393,-0.117 0.232,-0.041 33.848,-17.778 33.898,-17.814 4.352,-2.97 -4.426,-10.92 -8.619,-14.085 z M 4.533,57.655 c -0.102,0.117 -0.204,0.234 -0.305,0.352 0.033,-0.65 0.074,-1.299 0.124,-1.948 0.099,-0.182 0.206,-0.356 0.31,-0.537 -0.039,0.712 -0.076,1.423 -0.129,2.133 z m 108.862,-1.383 c -0.087,0.035 -0.166,0.084 -0.239,0.142 -1.889,-2.66 -5.013,-5.082 -6.895,-6.549 -0.226,-0.176 -0.453,-0.354 -0.679,-0.533 2.887,1.966 6.074,4.449 7.813,6.94 z M 80.783,40.383 c -0.187,1.791 -0.497,3.608 -0.285,5.372 -0.454,-1.28 -0.065,-2.818 -0.002,-4.127 0.017,-0.309 -0.122,-0.517 -0.314,-0.647 0.188,-0.211 0.396,-0.403 0.601,-0.598 z M 6.533,75.282 c 0.992,-1.048 2.333,-2.664 2.337,-2.797 0.81,-0.076 1.619,-0.156 2.428,-0.234 -0.41,0.31 -2.354,1.962 -3.522,2.988 -0.415,0.014 -0.828,0.029 -1.243,0.043 z m 3.926,-0.15 c 1.009,-1.018 2.884,-2.776 2.795,-3.07 0.99,-0.097 1.981,-0.199 2.97,-0.3 -0.949,1.025 -1.838,2.106 -2.672,3.229 -1.033,0.053 -2.064,0.098 -3.093,0.141 z m 9.126,-0.495 c -1.301,0.091 -2.601,0.175 -3.901,0.246 1.145,-1.399 2.776,-3.231 2.795,-3.352 1.024,-0.106 2.048,-0.214 3.072,-0.32 -0.729,1.098 -1.251,2.314 -1.966,3.426 z m 1.981,-0.142 c 0.803,-1.373 1.932,-3.338 1.935,-3.487 1.386,-0.145 2.771,-0.29 4.155,-0.432 -0.896,1.068 -1.637,2.26 -2.121,3.577 -1.319,0.127 -2.643,0.24 -3.969,0.342 z m 9.403,-0.954 c -1.19,0.152 -2.385,0.292 -3.584,0.42 0.609,-1.281 1.492,-2.415 2.5,-3.414 0.067,-0.067 0.104,-0.143 0.145,-0.218 0.77,-0.078 1.543,-0.156 2.312,-0.232 -0.29,0.849 -1.04,2.532 -1.373,3.444 z m 1.822,-0.234 c 0.548,-1.078 0.913,-2.244 1.328,-3.38 10e-4,-0.003 0,-0.005 0.002,-0.009 1.419,-0.138 2.838,-0.275 4.259,-0.407 -0.577,1.174 -1.462,2.177 -2.083,3.334 -1.163,0.149 -2.332,0.304 -3.506,0.462 z m 9.129,-1.108 c -1.218,0.117 -2.435,0.253 -3.655,0.4 0.642,-0.99 1.405,-1.911 1.855,-3.024 0.033,-0.083 0.034,-0.154 0.042,-0.229 1.245,-0.111 2.49,-0.216 3.735,-0.318 -0.302,0.485 -0.585,0.982 -0.878,1.476 -0.352,0.592 -0.838,1.048 -1.099,1.695 z m 5.82,-0.386 c -1.295,0.041 -2.583,0.119 -3.869,0.221 0.229,-0.305 0.484,-0.603 0.665,-0.904 0.346,-0.58 0.66,-1.172 1.043,-1.729 0.125,-0.179 0.16,-0.357 0.137,-0.522 1.171,-0.092 2.341,-0.177 3.512,-0.259 -0.434,1.093 -0.901,2.169 -1.488,3.193 z m 4.918,-0.464 c -1.012,0.127 -2.025,0.257 -3.038,0.386 0.508,-1.007 0.936,-2.051 1.343,-3.102 0.019,-0.048 0.013,-0.087 0.021,-0.13 1.166,-0.078 2.334,-0.147 3.5,-0.212 -0.567,1.041 -1.39,1.93 -1.826,3.058 z m 7.842,-3.29 c 0.002,0.471 -0.285,0.853 -0.54,1.229 -0.291,0.432 -0.564,0.849 -0.779,1.319 -1.547,0.156 -3.092,0.327 -4.637,0.512 0.546,-0.988 1.321,-1.855 1.763,-2.912 0,-0.002 0,-0.004 10e-4,-0.006 1.398,-0.068 2.798,-0.123 4.197,-0.173 0,0.012 -0.006,0.02 -0.005,0.031 z m 4.574,1.972 c -0.012,0.028 -0.018,0.06 -0.024,0.09 -0.775,0.05 -1.552,0.105 -2.325,0.163 -0.546,0.043 -1.092,0.103 -1.637,0.149 0.475,-0.728 1.041,-1.377 1.033,-2.343 0,-0.045 -0.018,-0.076 -0.023,-0.115 1.384,-0.041 2.768,-0.063 4.153,-0.08 -0.312,0.747 -0.848,1.392 -1.177,2.136 z m 5.823,-0.027 c -1.339,-0.047 -2.681,-0.036 -4.021,0.021 0.341,-0.604 0.762,-1.155 1.002,-1.823 0.04,-0.111 0.048,-0.214 0.045,-0.313 1.249,-0.004 2.495,0.004 3.744,0.022 -0.267,0.534 -0.58,1.042 -0.789,1.609 -0.06,0.164 -0.037,0.329 0.019,0.484 z m 4.972,0.104 c -1.129,0.103 -2.301,0.035 -3.484,-0.037 0.016,-0.031 0.038,-0.054 0.049,-0.086 0.244,-0.66 0.644,-1.254 0.93,-1.897 0.021,-0.047 0.032,-0.095 0.04,-0.144 1.053,0.023 3.653,0.099 4.707,0.138 -0.292,0.402 -2.21,1.987 -2.242,2.026 z M 113.6,61.715 c -0.301,0.303 -29.233,15.478 -30.829,15.46 -0.11,0 -0.202,0.024 -0.292,0.056 -0.001,-0.006 0.002,-0.015 0,-0.022 C 81.845,74.212 82,70.176 82.117,67.139 82.166,66.705 80.782,66.623 80.634,66.615 56.429,65.089 32.41,68.689 8.366,70.915 8.409,70.822 8.439,70.72 8.442,70.599 8.758,61.142 8.883,51.683 8.825,42.22 c 12.127,0.478 24.229,1.362 36.326,2.336 12.332,0.993 25.631,1.293 37.668,4.363 0.54,0.137 0.955,-9.527 1.089,-10.331 5.85,1.097 34.135,18.662 29.692,23.127 z"
   id="path2"
   inkscape:connector-curvature="0" />
</g>
<g
   id="g6"
   transform="translate(-2.0724627e-4,-36.044552)">
</g>
<g
   id="g8"
   transform="translate(-2.0724627e-4,-36.044552)">
</g>
<g
   id="g10"
   transform="translate(-2.0724627e-4,-36.044552)">
</g>
<g
   id="g12"
   transform="translate(-2.0724627e-4,-36.044552)">
</g>
<g
   id="g14"
   transform="translate(-2.0724627e-4,-36.044552)">
</g>
<g
   id="g16"
   transform="translate(-2.0724627e-4,-36.044552)">
</g>
<g
   id="g18"
   transform="translate(-2.0724627e-4,-36.044552)">
</g>
<g
   id="g20"
   transform="translate(-2.0724627e-4,-36.044552)">
</g>
<g
   id="g22"
   transform="translate(-2.0724627e-4,-36.044552)">
</g>
<g
   id="g24"
   transform="translate(-2.0724627e-4,-36.044552)">
</g>
<g
   id="g26"
   transform="translate(-2.0724627e-4,-36.044552)">
</g>
<g
   id="g28"
   transform="translate(-2.0724627e-4,-36.044552)">
</g>
<g
   id="g30"
   transform="translate(-2.0724627e-4,-36.044552)">
</g>
<g
   id="g32"
   transform="translate(-2.0724627e-4,-36.044552)">
</g>
<g
   id="g34"
   transform="translate(-2.0724627e-4,-36.044552)">
</g>
</svg>