<?xml version="1.0" encoding="UTF-8" standalone="no"?>
<svg
   xmlns:dc="http://purl.org/dc/elements/1.1/"
   xmlns:cc="http://creativecommons.org/ns#"
   xmlns:rdf="http://www.w3.org/1999/02/22-rdf-syntax-ns#"
   xmlns:svg="http://www.w3.org/2000/svg"
   xmlns="http://www.w3.org/2000/svg"
   xmlns:sodipodi="http://sodipodi.sourceforge.net/DTD/sodipodi-0.dtd"
   xmlns:inkscape="http://www.inkscape.org/namespaces/inkscape"
   version="1.1"
   x="0px"
   y="0px"
   viewBox="0 0 75.400002 75.400002"
   enable-background="new 0 0 100 100"
   xml:space="preserve"
   id="svg8"
   sodipodi:docname="sugar_free.svg"
   width="75.400002"
   height="75.400002"
   inkscape:version="0.92.3 (2405546, 2018-03-11)"><metadata
     id="metadata14"><rdf:RDF><cc:Work
         rdf:about=""><dc:format>image/svg+xml</dc:format><dc:type
           rdf:resource="http://purl.org/dc/dcmitype/StillImage" /><dc:title></dc:title></cc:Work></rdf:RDF></metadata><defs
     id="defs12" /><sodipodi:namedview
     pagecolor="#ffffff"
     bordercolor="#666666"
     borderopacity="1"
     objecttolerance="10"
     gridtolerance="10"
     guidetolerance="10"
     inkscape:pageopacity="0"
     inkscape:pageshadow="2"
     inkscape:window-width="3840"
     inkscape:window-height="2066"
     id="namedview10"
     showgrid="false"
     inkscape:zoom="7.552"
     inkscape:cx="45.230367"
     inkscape:cy="16.592894"
     inkscape:window-x="-11"
     inkscape:window-y="-11"
     inkscape:window-maximized="1"
     inkscape:current-layer="svg8" /><path
     d="M 37.7,0 C 16.9,0 0,16.9 0,37.7 0,58.5 16.9,75.4 37.7,75.4 58.5,75.4 75.4,58.5 75.4,37.7 75.4,16.9 58.5,0 37.7,0 Z m 35.7,37.7 c 0,9.5 -3.7,18.1 -9.8,24.5 L 50.2,48.8 62.8,41.5 c 0.3,-0.2 0.5,-0.5 0.5,-0.9 V 24.9 c 0,0 0,-0.1 0,-0.1 0,0 0,-0.1 0,-0.1 0,-0.1 -0.1,-0.2 -0.1,-0.3 0,0 0,0 0,0 v 0 c -0.1,-0.1 -0.1,-0.2 -0.2,-0.3 0,0 0,0 -0.1,-0.1 0,0 0,0 -0.1,0 L 49.2,16.1 c -0.3,-0.2 -0.7,-0.2 -1,0 L 34.6,24 c 0,0 0,0 -0.1,0 0,0 0,0 -0.1,0.1 -0.1,0.1 -0.2,0.2 -0.2,0.3 v 0 c 0,0 0,0 0,0 -0.1,0.1 -0.1,0.2 -0.1,0.3 0,0 0,0.1 0,0.1 0,0 0,0.1 0,0.1 V 30 L 27.8,26.4 13.2,11.8 C 19.6,5.8 28.2,2 37.7,2 57.4,2 73.4,18 73.4,37.7 Z M 15,34.8 l 11.7,-6.7 8.5,8.5 -8.5,4.9 z m 10.7,8.4 V 56.7 L 14.1,50 V 36.5 Z m 23,-11.6 -11.6,-6.7 11.6,-6.7 11.6,6.7 z m 12.7,-5 V 40 L 49.7,46.8 V 33.3 Z m -13.7,6.7 v 13 l -6.4,-6.4 v -5.1 c 0,0 0,-0.1 0,-0.1 0,0 0,-0.1 0,-0.1 0,-0.1 -0.1,-0.2 -0.1,-0.3 v 0 0 C 41.1,34.2 41.1,34.1 41,34 c 0,0 0,0 -0.1,-0.1 0,0 0,0 -0.1,0 l -4.7,-2.7 v -4.6 z m -8.4,4.6 -0.9,-0.9 0.9,-0.5 z m -1,-3.1 -1.3,0.8 -3.7,-3.7 z m -10.6,8.4 9,-5.2 2.7,2.7 v 9.2 L 27.7,56.7 Z M 41.3,42.7 42.1,43.5 41.3,43 Z M 2,37.7 C 2,28.2 5.7,19.6 11.8,13.2 l 13.4,13.4 -12.7,7.3 c 0,0 0,0 -0.1,0 0,0 0,0 -0.1,0.1 -0.1,0.1 -0.2,0.2 -0.2,0.3 v 0 c 0,0 0,0 0,0 -0.1,0.1 -0.1,0.2 -0.1,0.3 0,0 0,0.1 0,0.1 0,0 0,0.1 0,0.1 v 15.7 c 0,0.4 0.2,0.7 0.5,0.9 l 13.6,7.9 c 0,0 0.1,0 0.1,0 0,0 0.1,0 0.1,0 0.1,0 0.2,0.1 0.3,0.1 0.1,0 0.2,0 0.3,-0.1 0,0 0.1,0 0.1,0 0,0 0.1,0 0.1,0 l 13.6,-7.9 c 0.3,-0.2 0.5,-0.5 0.5,-0.9 v -5.1 l 6.3,3.6 14.6,14.6 c -6.4,6 -15,9.8 -24.5,9.8 C 18,73.4 2,57.4 2,37.7 Z"
     id="path2"
     inkscape:connector-curvature="0" /></svg>