<?xml version="1.0" encoding="UTF-8" standalone="no"?>
<!-- Generator: Adobe Illustrator 21.1.0, SVG Export Plug-In . SVG Version: 6.00 Build 0)  -->

<svg
   xmlns:dc="http://purl.org/dc/elements/1.1/"
   xmlns:cc="http://creativecommons.org/ns#"
   xmlns:rdf="http://www.w3.org/1999/02/22-rdf-syntax-ns#"
   xmlns:svg="http://www.w3.org/2000/svg"
   xmlns="http://www.w3.org/2000/svg"
   xmlns:sodipodi="http://sodipodi.sourceforge.net/DTD/sodipodi-0.dtd"
   xmlns:inkscape="http://www.inkscape.org/namespaces/inkscape"
   version="1.1"
   id="Layer_1"
   x="0px"
   y="0px"
   viewBox="0 0 1300 700"
   style="enable-background:new 0 0 1300 700;"
   xml:space="preserve"
   sodipodi:docname="Vegan Logo8.svg"
   inkscape:version="0.92.2 (5c3e80d, 2017-08-06)"><title
     id="title3742">Vegan Logo ( vegansymbol.com )</title><metadata
     id="metadata3740"><rdf:RDF><cc:Work
         rdf:about=""><dc:format>image/svg+xml</dc:format><dc:type
           rdf:resource="http://purl.org/dc/dcmitype/StillImage" /><dc:title>Vegan Logo ( vegansymbol.com )</dc:title></cc:Work></rdf:RDF></metadata><defs
     id="defs3738" /><sodipodi:namedview
     pagecolor="#ffffff"
     bordercolor="#666666"
     borderopacity="1"
     objecttolerance="10"
     gridtolerance="10"
     guidetolerance="10"
     inkscape:pageopacity="0"
     inkscape:pageshadow="2"
     inkscape:window-width="2560"
     inkscape:window-height="1017"
     id="namedview3736"
     showgrid="false"
     inkscape:zoom="0.64"
     inkscape:cx="-119.00385"
     inkscape:cy="389.82641"
     inkscape:window-x="-8"
     inkscape:window-y="-8"
     inkscape:window-maximized="1"
     inkscape:current-layer="Layer_1" /><g
     id="g3733"><path
       d="m 551.5,79 h 15.1 c 16.3,2.6 29.4,8.5 39.5,17.6 9.1,12.7 13.7,22.3 13.7,28.8 v 10.2 c 0,1.3 -1.1,2.4 -3.4,3.4 H 614 c -1,0 -5.2,-0.6 -12.7,-2 h -22.9 c -30.2,4.2 -53,11.9 -68.3,22.9 -30.9,22.4 -51.9,48.3 -62.9,77.6 -2.9,5.9 -6.3,16.3 -10.2,31.2 -2.9,11.7 -6.3,24.9 -7.9,37.3 -1,0 -0.4,-0.8 -0.4,-0.2 C 425,335 427,366 427,366 c 2.6,25 5.5,49.3 12.3,72 6.2,10.1 9.3,16.9 9.3,20.5 -2.9,15.9 -8,28 -15.1,36.1 l -6.8,6.8 h -5.9 c -19.5,-22.4 -35.3,-39.3 -47.3,-50.7 -13,-11.4 -34,-27.6 -62.9,-48.8 -39,-28 -71.1,-59.5 -96.1,-94.6 -64.1,50.7 -96.1,95 -96.1,132.7 0,19.5 9.3,36.3 27.8,50.2 v 1 c -1,0 -2.4,0.8 -4.4,2.4 H 135 c -10.1,-1 -22.1,-5.2 -36.1,-12.7 C 76.7,464 63.2,446.5 60,427 l -2,-9 -1,-11 1,-14.4 4,-13.6 5.6,-12.7 C 69,363 70.3,360.9 74,355 c 2.2,-3.5 5,-8 8.8,-12.1 21.1,-17.6 32.7,-26.3 34.6,-26.3 16.3,-10.1 36.7,-18.2 61.5,-24.4 14,-3.9 22.1,-6.7 24.4,-8.3 v -1 c -9.4,-14 -14.1,-30.2 -14.1,-48.8 0,-43.2 20.2,-76.1 60.5,-98.5 14.3,-6.2 27.3,-9.3 39,-9.3 28.9,0 51.1,14.6 66.3,43.9 l 2,20 c 0,28 -19.2,51.9 -57.6,71.7 -24.1,10.7 -37.6,17.2 -40.5,19.5 29.3,31.9 54.6,54.3 76.1,67.3 37.1,28 62.9,48 77.6,60 -4.6,-17.2 -8,-32.2 -10.2,-44.9 -2.3,-9.1 -4.6,-26.5 -6.8,-52.2 V 277 c 2.3,-25 6.8,-50.6 13.7,-76.6 1.3,0 2.9,-3.4 4.9,-10.2 6.8,-20.5 22.6,-43.2 47.3,-68.3 22.5,-20.8 52.6,-35.1 90,-42.9 z M 219.3,192.7 c 0,22.1 10.4,48 31.2,77.6 20.2,-6.8 37.9,-22 53.2,-45.4 5.5,-8.8 8.3,-17.7 8.3,-26.8 v -9.3 c 0,-19.5 -12,-33.3 -36.1,-41.5 H 253 c -13,4.2 -21.5,10.1 -25.4,17.6 -5.5,6.5 -8.3,15.7 -8.3,27.8 z M 457,364 c -0.2,-1.3 -0.6,-2.3 0,-12 v -5 c -0.1,-0.7 0,-3 0.5,-6.6 v -0.6 c 2.6,-17.7 5.1,-32.2 7.7,-43.5 0,-0.1 0,-0.2 0.1,-0.2 9.4,-27.9 23.4,-46.7 41.9,-56.5 12.4,-7.1 24.2,-10.7 35.6,-10.7 26.3,0 44.4,14.7 54.5,44.1 0.1,0.2 0,0.3 0.1,0.5 2.5,5.5 2.5,8.5 3,12 0.1,0.4 0.3,0.8 0.3,1.2 0,0 1.1,12.3 1.1,16.4 0,2.2 -0.2,8.5 -1,14 -0.7,4.8 -2,8.9 -2,9 l -6.4,18.7 c 0,0.2 -0.1,0.3 -0.2,0.4 -9,15.3 -26.4,31.8 -41.5,33.9 -0.6,0.1 10,-3 4,-1 -1.3,0.4 -1,0.3 -1.5,0.4 -1.8,0.3 -4.8,0.3 -6.6,0 -15.9,-2.7 -25.1,-5.8 -27.7,-9.4 -0.7,-1 -0.4,-2.4 0.7,-3 l 0.5,-0.3 c 0.3,-0.2 0.7,-0.3 1.1,-0.3 h 11.6 c 0.3,0 0.6,-0.1 0.9,-0.2 11.8,-5.6 20.6,-16.6 26.4,-33 2.3,-5.2 4.5,-15.2 6.8,-30.1 v -0.3 -35.7 -0.5 c -3.3,-15.1 -8.6,-22.7 -16,-22.7 -18.5,0 -31.7,24.2 -39.5,72.5 v 0.4 36.7 0.3 c 4.9,30.4 12.6,53.6 23.3,69.5 0,0.1 0.1,0.1 0.1,0.2 7.1,9.1 13.6,13.6 19.4,13.6 h 2.4 c 15.4,0 29.5,-13.4 42.3,-40.2 0.4,-0.7 1.1,-1.2 1.9,-1.2 h 0.6 c 1.9,0 3.1,2.6 3.4,7.7 v 0.2 c 0,10.7 -6.9,23 -20.5,37 -11.7,13.3 -25.7,20 -42,20 h -11.2 c -17.6,0 -34.1,-8.9 -49.8,-26.8 -10,-11.9 -16.6,-25.3 -19.9,-40.1 l -0.3,-0.5 C 461,391 458.5,376.8 457,364 M 701,213 c 0.2,0 3,-0.1 4,0 4.1,0.4 10.8,2.1 14,3 1.5,0.4 2.9,1.1 5,2 1,0.5 2.3,0.7 3.6,1 7.5,3.6 11.7,7.2 12.7,10.7 v 1 c 0,1.6 -0.8,2.4 -2.4,2.4 h -16.1 c -23.4,0 -38.9,24.2 -46.3,72.7 v 34.6 c 2.3,31.5 6.2,52.5 11.7,62.9 2.9,4.2 6.7,6.5 11.2,6.8 11.1,0 21.4,-24.1 36.7,-71.2 -2,0 2,-4.7 0.4,-12.2 v -46.3 c 1.6,-2.3 3.6,-12.7 5.9,-31.2 9.4,-14.6 22.9,-22 40.5,-22 h 10.7 c 1,0 2.4,1.5 4.4,4.4 -4.6,31.5 -6.8,48.9 -6.8,52.2 v 39.5 l 5.9,60 V 394 c 0,6.2 0.3,13.5 1,22 l -1.1,24 c 0,1 0.2,-20.5 0.9,-20.5 l -1,11.2 v 17.6 c -2.3,17.2 -5.9,36.1 -10.7,56.6 13.7,7.2 35.3,12.7 64.9,16.6 l 7.3,1 H 892 c 21.5,-2.3 40,-7.3 55.6,-15.1 C 968.4,492 981,477.3 981,464 l 0.3,-1.6 v -21 h 1 c 15.3,11.7 22.9,29.4 22.9,53.2 0,38.7 -20.3,65.4 -61,80 -9.1,2.3 -17.2,3.4 -24.4,3.4 h -16.1 c -34.5,0 -77.1,-16.3 -127.8,-48.8 h -1 c -7.5,18.5 -22.1,34.8 -43.9,48.8 -12.4,6.2 -28.1,10.4 -47.3,12.7 h -7.3 c -17.6,-2.3 -31.7,-6.8 -42.4,-13.7 -21.1,-15.9 -28.66165,-25.17573 -33.6335,-39.01384 -1.3,0 -1.37951,-5.78067 -1.30946,-7.24805 L 600.3,504.7 l 6.8,-20.5 c 9.1,-14 19.5,-23.2 31.2,-27.8 3.2,-1.6 10.9,-3.6 22.9,-5.9 h 3.9 c 15.9,0 41.3,11.2 76.1,33.7 1.6,-17.4 1.7,-56.4 2.4,-47.8 l -1,-2 c 0,-1 -0.4,30.4 0.3,30.4 l -0.3,-37.7 c 0,-8.8 -0.5,-25.7 -1.5,-50.7 -1,-3.2 -2.1,-4.9 -3.4,-4.9 -6.8,24.7 -18.4,43.3 -34.6,55.6 -4.9,3.3 -13.3,4.9 -25.4,4.9 -27.3,0 -46.7,-16.6 -58,-49.8 -2.9,-14 6.2,24.6 -5.9,-21 v -43.9 c 4.6,-30.9 12.4,-54 23.4,-69.3 12.4,-15.9 24.7,-26 37.1,-30.2 5.2,-1 6.6,-2 10.6,-3 l 5,-1 C 696,213 700.4,212.9 701,213 Z m -71.9,318.7 c 0,9.1 3.1,18.7 9.3,28.8 10.7,11.1 18.63281,14.79336 25.50507,17.23476 1.02539,0.26055 5.75895,0.94547 6.3711,0.90234 L 677.9,578.1 c 7.1,-2.3 14.5,-5.4 22,-9.3 17.2,-15.3 29.1,-36.9 35.6,-64.9 v -1 c -17.2,-11.1 -33.8,-16.6 -49.8,-16.6 -25,0 -42.8,10.1 -53.2,30.2 -1.6,4 -2.8,9 -3.4,15.2 z m 55.6,-429.8 h 6.8 c 26.3,0 48.8,8.9 67.3,26.8 9.1,12 13.7,21.3 13.7,27.8 v 9.3 c 0,4.6 -3.1,9.1 -9.3,13.7 -1.3,0 -4.4,-6.5 -9.3,-19.5 -8.5,-9.4 -12.7,-14.8 -12.7,-16.1 h -1 v 3.4 c 10.7,12.4 16.1,24.7 16.1,37.1 -2.3,5.5 -8,8.3 -17.1,8.3 -6.5,0 -14.6,-3.6 -24.4,-10.7 -14,-11.4 -22.9,-25.2 -26.8,-41.5 -3.9,-14 -5.9,-26.3 -5.9,-37.1 z m 178,-9.2 h 31.7 c 6.8,1.3 10.2,3.3 10.2,5.9 0,17.2 -7,40 -21,68.3 -13.7,22.1 -32.2,36.4 -55.6,42.9 -1,0 -2.4,0.8 -4.4,2.4 h -9.3 c -16.3,-4.2 -24.4,-9.3 -24.4,-15.1 0.6,-13 10.2,-29.9 28.8,-50.7 5.2,-3.9 8.3,-5.9 9.3,-5.9 V 139 h -1 c -15,5.9 -28.1,18.7 -39.5,38.5 -2.6,9.1 -4.9,13.7 -6.8,13.7 -4.6,-5.2 -8,-10.2 -10.2,-15.1 1,0 2.8,-4.2 5.4,-12.7 v -2 c -1.3,-5.5 -2,-8.6 -2,-9.3 v -4.9 c 7.1,-15 19,-27.6 35.6,-38 21.8,-10.1 38.4,-15.1 49.8,-15.1 0,-1 1.2,-1.4 3.4,-1.4 z m 17.6,131.2 H 893 c 14,0 26,5 36.1,15.1 v 1 c 0,1 -1.1,2.1 -3.4,3.4 -1,0 -4.1,-0.8 -9.3,-2.4 h -9.3 c -11.4,5.9 -18.4,13.7 -21,23.4 -3.9,4.9 -8.2,20.3 -12.2,47.6 0,0 -0.5,1.1 -0.5,2.1 -1,20.5 -1.5,36.6 -1.5,48.3 0,27.3 4.7,42.1 14.1,44.4 10.4,0 21.5,-16.6 35.8,-50.8 v -5 l -0.2,-4.7 c 0,-1.6 -0.7,-8.9 -2,-22 v -16.1 c 2,-24.7 6.2,-43.2 12.7,-55.6 13,-19.2 28.5,-28.8 46.3,-28.8 h 1 c 7.1,0 10.7,2 10.7,5.9 -9.7,15.5 -16.8,36.7 -21.3,63.7 -0.8,4.8 -1.5,9.7 -2.2,14.9 V 357 c 2.3,26 6.5,44.1 12.7,54.1 3.9,6.2 10.1,10.1 18.5,11.7 v 2.4 c -1.3,2.9 -5.9,6 -13.7,9.3 H 975 C 966.2,431.9 956.5,426 945.7,416.9 935.3,400.6 928.8,386.3 926.2,374 h -1 c 0,5.2 -5.5,15.3 -16.6,30.2 -9.8,14 -19.4,21 -28.8,21 H 871 c -30.9,0 -49.4,-22.8 -55.6,-68.3 v -38.5 c 2.3,-21.8 6.5,-40.3 12.7,-55.6 15.3,-25.9 32.7,-38.9 52.2,-38.9 z m -52,-83.8 V 139 l 1.7,0.7 v 0.4 z m 219.8,76.5 h 3.4 c 1.6,0 2.4,1.3 2.4,3.9 -4.6,19.5 -8,44.9 -10.2,76.1 v 16.1 c 1.3,12 2,23.3 2,33.7 h 1.5 c 8.8,-23.7 20.6,-46 35.6,-66.8 20.8,-25.4 36.3,-39.3 46.3,-42 4.9,-5.2 16.9,-9.4 36.1,-12.7 h 5.9 c 5.5,2 8.9,5 10.2,9.3 -1.3,5.2 -10.6,26 -27.8,62.4 -13.3,24.1 -22.6,58.9 -27.8,104.4 0,3.9 -0.8,11.2 -2.4,22 v 19.5 c 2.6,20.8 7,35.9 13.2,45.4 9.8,10.1 20.5,15.1 32.2,15.1 15.6,0 26,-15.4 31.2,-46.3 v -14.1 c -2.3,-16.3 -9.6,-32 -22,-47.3 -1,0 -5.5,-4.7 -13.7,-14.1 0,-2.9 5.4,-4.4 16.1,-4.4 h 15.1 c 10.7,0 20.3,3.1 28.8,9.3 7.5,2.9 14,12.5 19.5,28.8 V 440 c -6.5,20.8 -11.9,32 -16.1,33.7 -7.2,16.6 -23.7,30.6 -49.8,42 l -16.1,3.4 c -18.2,0 -35.6,-9.6 -52.2,-28.8 -8.8,-13.7 -15,-27.6 -18.5,-42 -2,-10.7 -2.7,-18.3 -4,-18.3 -0.7,-14.6 -1.8,-22.5 -1.8,-28.1 0,-35.4 9.6,-78.2 28.8,-128.3 v -1.5 h -1 c -26.3,31.2 -39.5,48.6 -39.5,52.2 -9.4,16.6 -15.9,39 -19.5,67.3 v 4.4 c 4.9,29.3 9.1,47.8 12.7,55.6 v 2.4 c 0,1.6 -0.8,2.4 -2.4,2.4 h -5.4 c -10.7,0 -23.9,-15.1 -39.5,-45.4 -14,-33.8 -21,-70.9 -21,-111.2 v -9.3 c 0,-36.4 11.2,-59.8 33.7,-70.2 6.4,-2.4 11.8,-3.7 16,-3.7 z"
       id="path3731"
       inkscape:connector-curvature="0"
       sodipodi:nodetypes="cccsscsccccccccccccccccscccccccccccccccccscscccccccccccccsccsscccsccccccccsccccscccccccccccssccccccsccccccsscsscscssccccccccccsssccccccccsscsccsccccccccccccccscsscccccccsccccsccccccccscccccccccccsccccscccscssccccccsccccscsccccccccccccccscccssscsccccccscccccccsscscccccccccccsscccscccccsscccccccccccccccsccccsscccccccccscccccccssscsscs" /></g></svg>